<svg width="25" height="25" viewBox="0 0 25 25" fill="none" xmlns="http://www.w3.org/2000/svg">
<path d="M1 13.1889C0.834315 13.1889 0.7 13.0546 0.7 12.8889V1C0.7 0.834314 0.834315 0.7 1 0.7H10.1111C10.2768 0.7 10.4111 0.834315 10.4111 1V12.8889C10.4111 13.0546 10.2768 13.1889 10.1111 13.1889H1ZM1 24.3C0.834315 24.3 0.7 24.1657 0.7 24V17.6667C0.7 17.501 0.834315 17.3667 1 17.3667H10.1111C10.2768 17.3667 10.4111 17.501 10.4111 17.6667V24C10.4111 24.1657 10.2768 24.3 10.1111 24.3H1ZM14.8889 24.3C14.7232 24.3 14.5889 24.1657 14.5889 24V12.1111C14.5889 11.9454 14.7232 11.8111 14.8889 11.8111H24C24.1657 11.8111 24.3 11.9454 24.3 12.1111V24C24.3 24.1657 24.1657 24.3 24 24.3H14.8889ZM14.5889 1C14.5889 0.834314 14.7232 0.7 14.8889 0.7H24C24.1657 0.7 24.3 0.834315 24.3 1V7.33333C24.3 7.49902 24.1657 7.63333 24 7.63333H14.8889C14.7232 7.63333 14.5889 7.49902 14.5889 7.33333V1Z" stroke="#9FA2B4" stroke-width="1.4"/>
</svg>
