<svg width="25" height="22" viewBox="0 0 25 22" fill="none" xmlns="http://www.w3.org/2000/svg">
<path d="M0.892857 3.95985H24.1071C24.6003 3.95985 25 3.5659 25 3.07988V0.879967C25 0.39395 24.6003 0 24.1071 0H0.892857C0.399721 0 0 0.39395 0 0.879967V3.07988C0 3.5659 0.399721 3.95985 0.892857 3.95985ZM0.892857 12.7595H24.1071C24.6003 12.7595 25 12.3656 25 11.8796V9.67964C25 9.19362 24.6003 8.79967 24.1071 8.79967H0.892857C0.399721 8.79967 0 9.19362 0 9.67964V11.8796C0 12.3656 0.399721 12.7595 0.892857 12.7595ZM0.892857 21.5592H24.1071C24.6003 21.5592 25 21.1652 25 20.6792V18.4793C25 17.9933 24.6003 17.5993 24.1071 17.5993H0.892857C0.399721 17.5993 0 17.9933 0 18.4793V20.6792C0 21.1652 0.399721 21.5592 0.892857 21.5592Z" fill="#9FA2B4"/>
</svg>
