<svg width="25" height="25" viewBox="0 0 25 25" fill="none" xmlns="http://www.w3.org/2000/svg">
<path d="M12.5 25.4463C14.471 25.4463 16.0697 23.8476 16.0697 21.8749H8.93026C8.93026 23.8476 10.529 25.4463 12.5 25.4463ZM24.5195 17.092C23.4414 15.9335 21.4241 14.1908 21.4241 8.48211C21.4241 4.14618 18.3839 0.675211 14.2846 -0.176348V-1.33929C14.2846 -2.32534 13.4855 -3.125 12.5 -3.125C11.5145 -3.125 10.7154 -2.32534 10.7154 -1.33929V-0.176348C6.61609 0.675211 3.57592 4.14618 3.57592 8.48211C3.57592 14.1908 1.55863 15.9335 0.480506 17.092C0.145685 17.4519 -0.00275159 17.8822 3.85818e-05 18.3035C0.00617696 19.2187 0.724367 20.0892 1.79133 20.0892H23.2087C24.2756 20.0892 24.9944 19.2187 25 18.3035C25.0028 17.8822 24.8543 17.4514 24.5195 17.092Z" fill="#9FA2B4"/>
</svg>
